<?xml version="1.0" encoding="utf-8"?>
<!-- Generator: Adobe Illustrator 28.2.0, SVG Export Plug-In . SVG Version: 6.00 Build 0)  -->
<svg version="1.1" id="Layer_1" xmlns="http://www.w3.org/2000/svg" xmlns:xlink="http://www.w3.org/1999/xlink" x="0px" y="0px"
	 viewBox="0 0 307.47 306.94" style="enable-background:new 0 0 307.47 306.94;" xml:space="preserve">
<style type="text/css">
	.st0{fill:#1E3E3F;}
</style>
<g>
	<path class="st0" d="M63.67,272.63l170.85,6.66c1.95,0.08,2.66,2.63,1.01,3.68c-23.63,14.98-51.63,23.63-81.68,23.63
		c-34.3,0-65.96-11.3-91.47-30.38C60.81,275.05,61.71,272.56,63.67,272.63z"/>
	<path class="st0" d="M266.6,256.98c-3.8,4.16-7.84,8.1-12.1,11.82c-0.39,0.34-0.89,0.52-1.41,0.5l-207.18-8.08
		c-0.51-0.02-1-0.23-1.36-0.6c-3.96-4.02-7.69-8.27-11.18-12.73c-1.05-1.34-0.05-3.31,1.66-3.24l230.16,8.97
		C266.91,253.69,267.76,255.73,266.6,256.98z"/>
	<path class="st0" d="M301.95,191.89c-4.75,18.47-12.86,35.58-23.64,50.65c-0.39,0.55-1.04,0.86-1.71,0.84l-252.13-9.84
		c-0.67-0.03-1.29-0.39-1.64-0.97c-6.8-11.27-12.19-23.51-15.91-36.44c-1.17-4.06,0.32-8.41,3.73-10.89l78.59-57.08
		c3.86-2.8,9.16-2.49,12.66,0.74l65.72,60.67c3.98,3.67,10.15,3.51,13.94-0.36l49.87-51.05c3.63-3.72,9.51-4.03,13.52-0.72
		l53.67,44.34C301.57,184.23,302.91,188.17,301.95,191.89z"/>
	<path class="st0" d="M153.84,0.76C69.39,0.76,0.93,69.22,0.93,153.67l0,5.66c0,1.63,1.85,2.58,3.18,1.62l86.91-63.13
		c3.86-2.8,9.16-2.49,12.66,0.74l63.09,58.25c3.98,3.67,10.16,3.51,13.94-0.36l48.99-50.17c3.63-3.72,9.51-4.04,13.52-0.72
		l60.27,49.79c1.3,1.08,3.27,0.15,3.27-1.54l0-0.13C306.77,69.22,238.32,0.76,153.84,0.76z M66.74,88.61
		c-10.07,0-18.23-8.17-18.23-18.23s8.17-18.23,18.23-18.23c10.07,0,18.23,8.17,18.23,18.23S76.81,88.61,66.74,88.61z"/>
</g>
</svg>
