<?xml version="1.0" encoding="utf-8"?>
<!-- Generator: Adobe Illustrator 28.2.0, SVG Export Plug-In . SVG Version: 6.00 Build 0)  -->
<svg version="1.1" id="Layer_1" xmlns="http://www.w3.org/2000/svg" xmlns:xlink="http://www.w3.org/1999/xlink" x="0px" y="0px"
	 viewBox="0 0 307.5 306.9" style="enable-background:new 0 0 307.5 306.9;" xml:space="preserve">
<style type="text/css">
	.st0{fill:#FFFFFF;}
</style>
<g>
	<path class="st0" d="M63.7,272.6l170.9,6.7c1.9,0.1,2.7,2.6,1,3.7c-23.6,15-51.6,23.6-81.7,23.6c-34.3,0-66-11.3-91.5-30.4
		C60.8,275,61.7,272.6,63.7,272.6z"/>
	<path class="st0" d="M266.6,257c-3.8,4.2-7.8,8.1-12.1,11.8c-0.4,0.3-0.9,0.5-1.4,0.5l-207.2-8.1c-0.5,0-1-0.2-1.4-0.6
		c-4-4-7.7-8.3-11.2-12.7c-1-1.3,0-3.3,1.7-3.2l230.2,9C266.9,253.7,267.8,255.7,266.6,257z"/>
	<path class="st0" d="M302,191.9c-4.8,18.5-12.9,35.6-23.6,50.7c-0.4,0.6-1,0.9-1.7,0.8l-252.1-9.8c-0.7,0-1.3-0.4-1.6-1
		c-6.8-11.3-12.2-23.5-15.9-36.4c-1.2-4.1,0.3-8.4,3.7-10.9l78.6-57.1c3.9-2.8,9.2-2.5,12.7,0.7l65.7,60.7c4,3.7,10.1,3.5,13.9-0.4
		l49.9-51.1c3.6-3.7,9.5-4,13.5-0.7l53.7,44.3C301.6,184.2,302.9,188.2,302,191.9z"/>
	<path class="st0" d="M153.8,0.8C69.4,0.8,0.9,69.2,0.9,153.7v5.7c0,1.6,1.8,2.6,3.2,1.6L91,97.8c3.9-2.8,9.2-2.5,12.7,0.7
		l63.1,58.3c4,3.7,10.2,3.5,13.9-0.4l49-50.2c3.6-3.7,9.5-4,13.5-0.7l60.3,49.8c1.3,1.1,3.3,0.1,3.3-1.5v-0.1
		C306.8,69.2,238.3,0.8,153.8,0.8z M66.7,88.6c-10.1,0-18.2-8.2-18.2-18.2s8.2-18.2,18.2-18.2c10.1,0,18.2,8.2,18.2,18.2
		S76.8,88.6,66.7,88.6z"/>
</g>
</svg>
